<?xml version="1.0" encoding="UTF-8"?>
<svg id="Calque_2" data-name="Calque 2" xmlns="http://www.w3.org/2000/svg" viewBox="0 0 40 18.83">
  <defs>
    <style>
      .cls-1 {
        font-size: 2.54px;
      }

      .cls-1, .cls-2 {
        font-family: Montserrat-Black, Montserrat;
        font-weight: 800;
      }

      .cls-1, .cls-2, .cls-3 {
        fill: #fff;
      }

      .cls-2 {
        font-size: 1.62px;
      }

      .cls-4 {
        letter-spacing: .04em;
      }

      .cls-5 {
        letter-spacing: 0em;
      }

      .cls-6 {
        letter-spacing: 0em;
      }

      .cls-7 {
        letter-spacing: .04em;
      }

      .cls-8 {
        letter-spacing: .04em;
      }

      .cls-3 {
        stroke-width: 0px;
      }
    </style>
  </defs>
  <g id="Calque_1-2" data-name="Calque 1">
    <g>
      <path class="cls-3" d="M29.57,6.36c-.28,0-.56.01-.83.01-.16,0-.23.06-.22.22,0,.21,0,.42,0,.63.01.19-.05.25-.24.25-.88,0-1.77,0-2.65,0-.09,0-.18,0-.29.01,0,.11-.01.21-.01.31,0,1.22,0,2.44,0,3.66,0,.21-.06.29-.27.27-.26-.03-.6.06-.75-.08-.13-.12-.06-.47-.06-.72,0-1.03,0-2.05,0-3.08,0-.12-.01-.23-.02-.36h-10.66c0,.09-.02.18-.02.26,0,.88,0,1.77,0,2.65,0,.21.06.27.27.27,1.6,0,3.2,0,4.8,0,.22,0,.31-.06.29-.28-.02-.18-.02-.35,0-.53.02-.22-.08-.27-.28-.26-.71,0-1.41,0-2.12,0-.23,0-.3-.07-.28-.29.02-.19,0-.39,0-.58,0-.15.06-.21.21-.21,1.11,0,2.22,0,3.33,0,.14,0,.2.05.2.19,0,.94,0,1.88,0,2.83,0,.13-.05.19-.18.18-.04,0-.08,0-.13,0-2.29,0-4.58,0-6.87,0-.24,0-.32-.07-.32-.31.01-1.58.01-3.16,0-4.75,0-.25.08-.3.32-.3,5.08,0,10.17,0,15.25,0,.14,0,.28,0,.45,0v-1.3c.34,0,.66,0,.97,0,.04,0,.12.08.12.13,0,.39-.02.77-.03,1.16h0Z"/>
      <path class="cls-3" d="M29.57,6.36c3.1,0,6.19,0,9.29,0,.11,0,.21,0,.34,0v1.1c-.1,0-.19,0-.29,0-1.53,0-3.06,0-4.59,0-.49,0-.45-.08-.45.44,0,1.18,0,2.36,0,3.53,0,.22-.06.3-.29.28-.18-.02-.35-.02-.53,0-.21.02-.25-.07-.25-.26,0-1.23,0-2.46,0-3.68,0-.24-.05-.32-.3-.31-.87.02-1.75,0-2.63,0-.09,0-.18,0-.31,0,0-.39,0-.75,0-1.11,0,0,0,0,0,0Z"/>
      <path class="cls-3" d="M17.47.33c1.2.07,2.4.14,3.6.22.54.03,1.09.07,1.63.13.72.08,1.45.17,2.17.27.72.1,1.45.2,2.16.35.78.17,1.55.37,2.31.59.91.27,1.81.59,2.61,1.1.44.28.85.62,1.25.97.17.15.26.18.42,0,.72-.79,1.53-1.46,2.47-1.98.25-.14.27-.13.34.16.04.14.1.28.16.45-1.3.68-2.33,1.67-3.18,2.81-.29-.31-.54-.63-.84-.91-.83-.76-1.81-1.27-2.84-1.7-1.41-.59-2.87-1.04-4.37-1.33-1.17-.23-2.34-.43-3.52-.61-.91-.13-1.83-.21-2.75-.31-.54-.06-1.08-.1-1.62-.15,0-.02,0-.04,0-.06Z"/>
      <path class="cls-3" d="M5.01,11.72c-.34,0-.64,0-.94,0-.05,0-.15-.11-.15-.17,0-.94,0-1.88,0-2.83,0-.14.06-.2.19-.19.17,0,.34,0,.5,0,2.16,0,4.33,0,6.49,0,.33,0,.33,0,.33.33,0,.23,0,.47,0,.73-.13,0-.22,0-.32,0-1.93,0-3.85,0-5.78,0-.26,0-.33.08-.32.33.02.59,0,1.18,0,1.81Z"/>
      <path class="cls-3" d="M3.93,7.45v-1.06h7.48v1.06H3.93Z"/>
      <path class="cls-3" d="M38.4,0c.85,0,1.59.7,1.6,1.5,0,.97-.67,1.68-1.59,1.68-.85,0-1.58-.7-1.58-1.52C36.82.72,37.5,0,38.4,0Z"/>
      <path class="cls-3" d="M37.09,15.36c-.39,0-.77,0-1.16,0-.09,0-.21-.05-.25-.11-.69-.99-.5-2.65.64-3.31.75-.43,1.65-.2,2.19.56.53.75.57,1.89.09,2.67-.08.14-.18.2-.34.2-.39-.01-.77,0-1.16,0ZM37.7,12.71c-.1-.28-.36-.39-.69-.25-.05.02-.11.11-.11.16.01.29-.1.4-.39.35-.22-.03-.29.1-.29.31,0,.11-.02.28-.08.31-.25.11-.12.25-.05.39.07.13.12.28.21.4.17.21.34.41.55.58.06.05.23-.04.36-.07-.02-.16-.03-.31-.04-.47.18,0,.33-.15.5,0,.05.05.24,0,.31-.05.17-.15.19-.66.03-.82-.14-.15-.1-.25,0-.39.05-.06.07-.21.03-.26-.07-.08-.2-.12-.33-.19Z"/>
      <path class="cls-3" d="M37.47,15.71c0,.11,0,.19,0,.27.02.69.04,1.37.05,2.06,0,.08-.1.15-.16.23,0,0-.03,0-.05,0-.7.06-.69.06-.63-.65.05-.54.05-1.09.05-1.63,0-.22.06-.31.28-.28.13.02.27,0,.45,0Z"/>
      <text class="cls-2" transform="translate(3.74 15.54) scale(1.13 1)"><tspan class="cls-8" x="0" y="0">FEDER</tspan><tspan class="cls-6" x="6.12" y="0">A</tspan><tspan class="cls-8" x="7.43" y="0">TION GABONAISE DE</tspan></text>
      <text class="cls-1" transform="translate(0 18.14) scale(1.32 1)"><tspan class="cls-4" x="0" y="0">TENNIS DE </tspan><tspan class="cls-5" x="16.36" y="0">T</tspan><tspan class="cls-7" x="18.03" y="0">ABLE</tspan></text>
    </g>
  </g>
</svg>