<?xml version="1.0" encoding="UTF-8"?>
<svg id="Calque_2" data-name="Calque 2" xmlns="http://www.w3.org/2000/svg" viewBox="0 0 40 40">
  <defs>
    <style>
      .cls-1 {
        font-size: 3.02px;
      }

      .cls-1, .cls-2 {
        font-family: TempusSansITC, 'Tempus Sans ITC';
      }

      .cls-1, .cls-2, .cls-3 {
        fill: #fff;
      }

      .cls-2 {
        font-size: 7.06px;
      }

      .cls-3 {
        stroke-width: 0px;
      }
    </style>
  </defs>
  <g id="Calque_1-2" data-name="Calque 1">
    <g>
      <path class="cls-3" d="M8.52,16.43c.3-.27.55-.49.8-.72,1.01-.93,2.03-1.86,3.02-2.81.35-.33.66-.71.95-1.09.22-.29.11-.55-.21-.71-.52-.25-1.08-.3-1.64-.33-.34-.02-.69,0-1.03-.01-.04,0-.07-.02-.17-.05.11-.06.16-.1.22-.11,1.12-.3,2.24-.42,3.37-.13.65.17,1.29.39,1.82.82.19.16.38.38.45.61.16.49.5.73.93.91.24.1.45.27.65.43.04.03.02.21-.03.26-.23.22-.48.43-.73.63-.05.04-.18.07-.22.03-.21-.17-.47-.33-.58-.56-.48-.95-1.38-.92-2.02-.38-.86.74-1.7,1.51-2.54,2.27-.48.43-.96.85-1.43,1.29-.46.42-.9.84-1.35,1.26-.36.33-.72.65-1.08.98-.03.02-.07.04-.14.07-.02-.25-.05-.47-.06-.69-.04-1.39-.07-2.78-.1-4.16-.03-1.21-.04-2.41-.07-3.62,0-.2-.02-.4,0-.6,0-.06.08-.13.14-.16.75-.39,1.49-.78,2.24-1.17.9-.47,1.8-.94,2.7-1.4.56-.29,1.12-.55,1.68-.84.45-.23.89-.48,1.34-.72.67-.35,1.35-.69,2.03-1.03.22-.11.43-.23.64-.34.18-.1.25-.02.24.16,0,0,0,.02,0,.02-.04.96.15.68-.7,1.13-.95.51-1.93.96-2.89,1.45-.88.45-1.75.91-2.62,1.36-.62.32-1.25.62-1.87.93-.59.3-1.19.59-1.77.91-.08.04-.15.2-.15.3,0,1.19.02,2.38.05,3.58.01.65.05,1.31.09,1.96,0,.07.03.14.06.26Z"/>
      <path class="cls-3" d="M22.15,26.49c3.82-1.9,7.52-3.98,11.08-6.43.02.16.04.24.04.33-.02,1.88-.04,3.76-.06,5.63,0,.25-.12.3-.33.3-1.99.03-3.97.07-5.96.11-1.54.03-3.07.05-4.61.07-.05,0-.11-.01-.16-.02Z"/>
      <path class="cls-3" d="M11.85,16.74c.93-.73,1.84-1.45,2.75-2.16.07-.05.14-.09.21-.15.13-.12.21-.02.3.06.09.08.13.17.04.28-.07.07-.12.16-.16.28.07-.03.15-.05.21-.1.17-.15.3-.1.44.05.16.17.32.32.49.48.11.11.05.19-.03.28-.21.21-.42.42-.63.63-.05.05-.08.11-.09.21.16-.09.31-.18.47-.27.19-.11.38-.22.58-.31.08-.03.22-.03.28.03.27.23.52.47.77.72.26.26.52.52.78.77.12.12.15.19,0,.31-.57.43-1.14.88-1.71,1.32-.37.28-.74.55-1.1.84-.12.1-.19.08-.29-.02-.62-.6-1.24-1.19-1.86-1.79-.44-.43-.88-.87-1.32-1.3-.04-.04-.07-.1-.13-.16Z"/>
      <path class="cls-3" d="M7.63,21.97c-.05-.23.08-.37.31-.5.64-.35,1.27-.7,1.88-1.09.81-.52,1.25-1.27,1.25-2.26,0-.07.01-.15,0-.21-.12-.45.14-.71.47-.91.05-.03.17-.03.22,0,.73.68,1.45,1.36,2.17,2.05.35.33.69.68,1.05,1.01.14.13.12.21-.01.34-.29.29-.6.33-1,.26-.92-.16-1.83-.08-2.63.46-.43.29-.81.66-1.19,1.02-.14.13-.25.22-.46.22-.57-.01-1.14,0-1.71,0-.33,0-.33,0-.33-.39Z"/>
      <path class="cls-3" d="M31.17,18.64s-.04.04-.05.05c-.13-.05-.28-.08-.39-.17.02-.02.04-.03.05-.05.13.06.26.11.39.17Z"/>
      <path class="cls-3" d="M30.41,9.32v-2.71h-2.94v1.25l-7.77-3.85.21,20.32,8.66-5.55h-1.66v-2.5h2.82v1.76l3.54-2.27v-5.04l-2.86-1.42ZM23.28,13.35h2.82v2.5h-2.82v-2.5ZM26.1,18.78h-2.82v-2.5h2.82v2.5ZM29.72,15.85h-2.82v-2.5h2.82v2.5Z"/>
      <path class="cls-3" d="M21.18,22.51c2.51-1.09,4.89-2.49,7.13-4.18,2.22-1.67,4.25-3.57,5.91-5.93,1.08-1.54,1.97-3.19,2.27-5.1.39-2.47-.51-4.56-2.42-5.71-1.74-1.05-3.67-1.35-5.67-1.38-.1,0-.2-.01-.3-.02-.08,0-.07-.04-.04-.09,2.36-.21,4.68-.12,6.9.66,1.05.37,2.01.9,2.8,1.71,1.76,1.79,2.11,4.07,1.38,6.67-.71,2.52-2.12,4.62-3.77,6.54-2.65,3.08-5.76,5.48-9.13,7.45-4.3,2.52-8.79,4.27-13.53,4.96-2.38.34-4.74.38-7.03-.17-1.39-.34-2.69-.88-3.76-1.88-1.81-1.7-2.27-3.92-1.62-6.55.53-2.13,1.62-3.96,2.91-5.68.63-.84,1.32-1.62,2.04-2.37.06,0,.09.03.03.09-1.01,1.25-1.95,2.56-2.62,4.07-.53,1.19-.9,2.42-.87,3.72.05,2.19,1.08,3.65,2.74,4.62,1.39.81,2.93,1.12,4.52,1.21,2.24.14,4.47-.14,6.7-.74.18-.16.41-.16.61-.21.34-.09.68-.21,1.02-.33,1.17-.33,2.32-.79,3.46-1.28.12-.05.24-.11.37-.08Z"/>
      <text class="cls-2" transform="translate(0 34.83) scale(.99 1)"><tspan x="0" y="0">IDEE </tspan><tspan x="16.22" y="0">DESIGN</tspan></text>
      <text class="cls-1" transform="translate(.17 38.97) scale(1.73 1)"><tspan x="0" y="0">CONSTRUCTION</tspan></text>
    </g>
  </g>
</svg>