<?xml version="1.0" encoding="UTF-8"?>
<svg id="Calque_2" data-name="Calque 2" xmlns="http://www.w3.org/2000/svg" viewBox="0 0 40 33.87">
  <defs>
    <style>
      .cls-1 {
        fill-rule: evenodd;
      }

      .cls-1, .cls-2 {
        fill: #fff;
        stroke-width: 0px;
      }
    </style>
  </defs>
  <g id="Calque_1-2" data-name="Calque 1">
    <g>
      <path class="cls-1" d="M39.86,4.42c-.16-.95-.48-1.83-1.07-2.6-.65-.85-1.52-1.38-2.56-1.64-1.14-.29-2.28-.22-3.42,0-1.44.28-2.79.81-4.1,1.46-1.25.62-2.44,1.35-3.58,2.16-.04.03-.09.05-.11.1.02,0,.03,0,.03,0,.06-.04.13-.08.19-.12,1.47-.92,2.99-1.71,4.67-2.19,1.15-.33,2.33-.51,3.53-.3,1.37.24,2.4.95,3.05,2.19.4.77.56,1.6.61,2.46.06,1.17-.1,2.32-.37,3.46-.38,1.59-.97,3.11-1.68,4.58-.92,1.9-2.03,3.69-3.29,5.39-.36.48-.73.95-1.09,1.43-.03.04-.07.08-.1.12-.94,1.15-1.94,2.24-3,3.27-1.9,1.83-3.95,3.46-6.27,4.74-1.51.83-3.07,1.48-4.78,1.75-.55.09-1.1.1-1.65.07-.29-.02-.58-.07-.86-.14-.52-.13-1-.34-1.44-.66-.99-.71-1.48-1.73-1.73-2.88-.1-.47-.13-.95-.13-1.43,0-.64.05-1.27.15-1.9.15-.99.41-1.96.73-2.91.03-.08.05-.08.13-.05.23.11.46.17.72.18.91.05,1.7-.54,1.94-1.35.21-.67.08-1.28-.36-1.81-.79-.95-2.26-.91-3,.08-.39.52-.5,1.11-.3,1.74.11.38.33.69.64.93.09.07.1.12.06.23-.43,1.01-.78,2.04-1.07,3.1-.29,1.05-.49,2.12-.56,3.21-.05.71-.03,1.43.08,2.15.11.73.3,1.44.66,2.09.86,1.58,2.24,2.34,3.98,2.49,1,.09,1.98-.04,2.95-.27,1.51-.36,2.92-.97,4.28-1.7,1.61-.87,3.11-1.91,4.54-3.05,1.04-.83,2.03-1.72,2.98-2.65.92-.9,1.78-1.84,2.62-2.81.7-.82,1.38-1.66,2.01-2.53.02-.03.05-.05.07-.08.57-.75,1.08-1.54,1.59-2.33.86-1.33,1.62-2.71,2.29-4.14.82-1.75,1.47-3.55,1.86-5.44.17-.82.28-1.65.3-2.49.02-.64-.03-1.28-.13-1.91Z"/>
      <g>
        <path class="cls-2" d="M3.9,5.39v2.12h-.18c-.06-.41-.16-.73-.31-.97-.07-.12-.17-.23-.28-.33-.11-.1-.23-.18-.36-.25-.13-.07-.27-.12-.41-.16-.15-.04-.29-.06-.44-.06-.16,0-.32.03-.46.08-.14.05-.26.12-.37.21-.1.09-.19.19-.24.3s-.09.23-.09.35c0,.17.04.32.13.44.08.13.2.24.34.35.15.11.32.21.51.31s.41.21.64.32c.26.13.51.26.74.38.23.12.44.26.62.41.18.15.32.32.43.51.11.19.16.42.16.69,0,.23-.05.45-.15.65-.1.21-.24.39-.42.54-.18.16-.4.28-.65.37-.25.09-.53.14-.83.14-.11,0-.21,0-.29,0-.08,0-.16,0-.23-.02-.07-.01-.15-.03-.23-.05-.08-.02-.17-.05-.28-.09-.08-.03-.16-.05-.24-.07-.08-.02-.15-.04-.22-.06-.07-.02-.12-.03-.17-.04-.05,0-.08-.01-.09-.01-.08,0-.14.02-.19.07-.05.05-.08.14-.1.28H.06v-2.1h.18c.04.22.09.41.15.58.06.16.12.3.19.41.07.11.16.21.27.3.11.09.24.17.38.24.14.07.29.12.45.16.16.04.33.06.5.06.2,0,.38-.03.54-.08.16-.05.3-.13.41-.22.11-.09.2-.2.26-.32.06-.12.09-.25.09-.38,0-.2-.04-.36-.13-.5-.09-.13-.2-.25-.35-.36-.15-.11-.32-.21-.51-.3-.19-.1-.4-.21-.61-.33-.24-.14-.48-.26-.7-.39-.23-.12-.43-.26-.6-.4-.17-.15-.31-.31-.42-.5-.1-.19-.16-.41-.16-.67,0-.22.05-.42.14-.62.1-.2.23-.37.4-.52.17-.15.37-.26.6-.35.23-.09.49-.13.76-.13.34,0,.71.08,1.1.24.17.08.3.11.38.11s.15-.02.2-.07c.05-.05.1-.14.13-.28h.18Z"/>
        <path class="cls-2" d="M6.09,10.79c.07,0,.14.01.21.04.06.03.12.06.17.11.05.05.09.1.12.16.03.06.04.13.04.2s-.01.13-.04.19c-.03.06-.07.11-.12.16-.05.05-.1.08-.17.11-.06.03-.13.04-.21.04s-.14-.01-.21-.04c-.06-.03-.12-.06-.17-.11-.05-.05-.09-.1-.12-.16-.03-.06-.04-.13-.04-.19s.01-.14.04-.2c.03-.06.07-.11.12-.16.05-.05.1-.08.17-.11.06-.03.13-.04.21-.04Z"/>
        <path class="cls-2" d="M7.2,5.53h1.77l3.99,4.6v-3.54c0-.38-.04-.61-.13-.71-.12-.13-.31-.19-.56-.19h-.23v-.17h2.27v.17h-.23c-.28,0-.47.08-.59.24-.07.09-.11.31-.11.66v5.17h-.17l-4.3-4.94v3.78c0,.38.04.61.13.71.12.13.31.19.56.19h.23v.17h-2.27v-.17h.23c.28,0,.48-.08.59-.24.07-.09.11-.31.11-.66v-4.27c-.1-.11-.18-.19-.24-.25-.06-.06-.13-.12-.18-.16-.06-.04-.12-.07-.19-.1-.07-.03-.15-.05-.25-.09-.09-.03-.23-.04-.42-.04v-.17Z"/>
        <path class="cls-2" d="M15.67,10.79c.07,0,.14.01.21.04.06.03.12.06.17.11.05.05.09.1.12.16.03.06.04.13.04.2s-.01.13-.04.19c-.03.06-.07.11-.12.16-.05.05-.1.08-.17.11-.06.03-.13.04-.21.04s-.14-.01-.21-.04c-.06-.03-.12-.06-.17-.11-.05-.05-.09-.1-.12-.16-.03-.06-.04-.13-.04-.19s.01-.14.04-.2c.03-.06.07-.11.12-.16.05-.05.1-.08.17-.11.06-.03.13-.04.21-.04Z"/>
        <path class="cls-2" d="M18.92,8.79v1.79c0,.39.04.63.13.72.12.13.31.2.55.2h.25v.17h-2.79v-.17h.25c.13,0,.25-.02.35-.06.1-.04.18-.11.24-.19.06-.1.1-.32.1-.66v-3.96c0-.38-.04-.62-.13-.72-.13-.13-.31-.2-.56-.2h-.25v-.17h2.39c.58,0,1.04.06,1.38.17.17.06.32.13.47.23.14.1.27.21.38.34.11.13.19.28.26.44.06.16.09.33.09.52,0,.25-.04.48-.13.69-.09.21-.22.38-.39.53-.17.15-.38.27-.63.35-.25.08-.54.12-.86.12s-.69-.04-1.1-.13ZM18.92,8.54c.17.03.32.05.45.07.13.02.24.02.33.02.17,0,.32-.03.47-.1.15-.06.28-.16.39-.27.11-.12.2-.25.26-.41.07-.16.1-.33.1-.52,0-.22-.04-.42-.11-.6-.07-.18-.17-.33-.29-.45-.13-.12-.27-.21-.44-.28-.17-.06-.35-.09-.55-.09-.08,0-.18,0-.28.02-.1.01-.22.04-.35.07v2.55Z"/>
        <path class="cls-2" d="M22.53,10.79c.07,0,.14.01.21.04.06.03.12.06.17.11.05.05.09.1.12.16.03.06.04.13.04.2s-.01.13-.04.19c-.03.06-.07.11-.12.16-.05.05-.1.08-.17.11-.06.03-.13.04-.21.04s-.14-.01-.21-.04c-.06-.03-.12-.06-.17-.11-.05-.05-.09-.1-.12-.16-.03-.06-.04-.13-.04-.19s.01-.14.04-.2c.03-.06.07-.11.12-.16.05-.05.1-.08.17-.11.06-.03.13-.04.21-.04Z"/>
        <path class="cls-2" d="M28.28,5.39v2.12h-.18c-.06-.41-.16-.73-.31-.97-.07-.12-.17-.23-.28-.33-.11-.1-.23-.18-.36-.25s-.27-.12-.41-.16c-.15-.04-.29-.06-.44-.06-.16,0-.32.03-.46.08-.14.05-.26.12-.37.21-.1.09-.19.19-.24.3-.06.11-.09.23-.09.35,0,.17.04.32.13.44.08.13.2.24.34.35.15.11.32.21.51.31s.41.21.64.32c.26.13.51.26.74.38.23.12.44.26.62.41.18.15.32.32.43.51.11.19.16.42.16.69,0,.23-.05.45-.15.65-.1.21-.24.39-.42.54-.18.16-.4.28-.65.37-.25.09-.53.14-.83.14-.11,0-.21,0-.29,0-.08,0-.16,0-.23-.02-.07-.01-.15-.03-.23-.05-.08-.02-.17-.05-.28-.09-.08-.03-.16-.05-.24-.07-.08-.02-.15-.04-.22-.06-.07-.02-.12-.03-.17-.04-.05,0-.08-.01-.09-.01-.08,0-.14.02-.19.07-.05.05-.08.14-.1.28h-.18v-2.1h.18c.04.22.09.41.15.58.06.16.12.3.19.41.07.11.16.21.27.3.11.09.24.17.38.24.14.07.29.12.45.16.16.04.33.06.5.06.2,0,.38-.03.54-.08.16-.05.3-.13.41-.22.11-.09.2-.2.26-.32.06-.12.09-.25.09-.38,0-.2-.04-.36-.13-.5-.09-.13-.2-.25-.35-.36-.15-.11-.32-.21-.51-.3-.19-.1-.4-.21-.61-.33-.24-.14-.48-.26-.7-.39s-.43-.26-.6-.4c-.17-.15-.31-.31-.42-.5-.1-.19-.16-.41-.16-.67,0-.22.05-.42.14-.62.1-.2.23-.37.4-.52.17-.15.37-.26.6-.35.23-.09.49-.13.76-.13.34,0,.71.08,1.1.24.17.08.3.11.38.11s.15-.02.2-.07c.05-.05.1-.14.13-.28h.18Z"/>
        <rect class="cls-2" x="15.71" y="11.75" width=".4" height=".01"/>
      </g>
    </g>
  </g>
</svg>